# xmcd CD database file
#
# Track frame offsets:
#	150
#	15532
#	33391
#	50727
#	66013
#	76700
#	91209
#	104977
#	119788
#	133896
#	150047
#
# Disc length: 2173 seconds
#
# Revision: 0
# Processed by: cddbd v1.4PL0 Copyright (c) Steve Scherf et al.
# Submitted via: CDex 1.50beta10
#
DISCID=8d087b0b
DTITLE=Various Artist - Baila Country En Linea 1-2
DYEAR=1900
DGENRE=Country
TTITLE0=Achy Breaky Heart - Electric Slide
TTITLE1=Chattahoochee - Hoochie Coochie
TTITLE2=King Of The Road - King Of The Road
TTITLE3=Yes! - Rose Garden
TTITLE4=Two Of A Kind Workin' On A Full House - Two Step
TTITLE5=Ole Slew Foot - HT Stomp
TTITLE6=Brother Jukebox - Back Track
TTITLE7=Danger At My Door - Renegade
TTITLE8=Chasin' That Neon Rainbow - Cheyenne
TTITLE9=Sticks and Stones - Rodeo
TTITLE10=Runnin' Behind
EXTD=
EXTT0=
EXTT1=
EXTT2=
EXTT3=
EXTT4=
EXTT5=
EXTT6=
EXTT7=
EXTT8=
EXTT9=
EXTT10=
PLAYORDER=
